<svg id="eUnvJSQ6Vbe1" xmlns="http://www.w3.org/2000/svg" xmlns:xlink="http://www.w3.org/1999/xlink" viewBox="0 0 271 102" shape-rendering="geometricPrecision" text-rendering="geometricPrecision"><style><![CDATA[#eUnvJSQ6Vbe3 {animation: eUnvJSQ6Vbe3_c_o 2500ms linear 1 normal forwards}@keyframes eUnvJSQ6Vbe3_c_o { 0% {opacity: 0} 12% {opacity: 1} 100% {opacity: 1}} #eUnvJSQ6Vbe4_to {animation: eUnvJSQ6Vbe4_to__to 2500ms linear 1 normal forwards}@keyframes eUnvJSQ6Vbe4_to__to { 0% {transform: translate(64.599802px,65px)} 8% {transform: translate(64.599802px,65px);animation-timing-function: cubic-bezier(0,0,0.58,1)} 20% {transform: translate(64.599802px,84.8px)} 32% {transform: translate(47.450002px,84.8px);animation-timing-function: cubic-bezier(0,0,0.58,1)} 40% {transform: translate(47.450002px,84.8px);animation-timing-function: cubic-bezier(0,0,0.58,1)} 76% {transform: translate(47.550002px,51px)} 100% {transform: translate(47.550002px,51px)}}]]></style><rect id="eUnvJSQ6Vbe2" display="none" width="271" height="102" rx="0" ry="0" fill="rgb(255,255,255)" stroke="none" stroke-width="1"/><g id="eUnvJSQ6Vbe3" opacity="0"><g id="eUnvJSQ6Vbe4_to" transform="translate(64.599802,65)"><path id="eUnvJSQ6Vbe4" d="M51.0498,68.7961L51.0498,48L53.5904,48L53.5904,68.7136C53.5904,72.2346,54.6631,74.9304,56.8086,76.801C59.0104,78.6165,61.6075,79.5243,64.5998,79.5243C67.5921,79.5243,70.1609,78.6165,72.3064,76.801C74.5082,74.9304,75.6092,72.2346,75.6092,68.7136L75.6092,48L78.1498,48L78.1498,68.7961C78.0933,71.6019,77.4441,73.9951,76.202,75.9757C75.0164,77.9013,73.4073,79.3867,71.3748,80.432C69.3423,81.4774,67.084,82,64.5998,82C62.1156,82,59.8291,81.4774,57.7401,80.432C55.7076,79.3867,54.0703,77.8738,52.8282,75.8932C51.6426,73.9126,51.0498,71.5469,51.0498,68.7961ZM56.6392,68.7961L56.6392,48L59.1798,48L59.1798,68.7136C59.1798,70.5841,59.7162,71.9595,60.7889,72.8398C61.8616,73.6651,63.1319,74.0777,64.5998,74.0777C66.0677,74.0777,67.338,73.6651,68.4107,72.8398C69.4834,71.9595,70.0198,70.5841,70.0198,68.7136L70.0198,48L72.5604,48L72.5604,68.7961C72.504,71.3819,71.6853,73.335,70.1045,74.6553C68.5801,75.9207,66.7452,76.5534,64.5998,76.5534C62.4544,76.5534,60.5913,75.8932,59.0104,74.5728C57.4296,73.2524,56.6392,71.3269,56.6392,68.7961Z" transform="translate(-64.599802,-65)" fill="rgb(0,0,0)" stroke="none" stroke-width="1"/></g><path id="eUnvJSQ6Vbe5" d="M70,68L70,34L72.5549,34L72.5549,68L70,68ZM98.445,68L98.445,34L101,34L101,68L98.445,68ZM92.8242,58.5274L78.1758,38.3134L78.1758,43.4726L92.8242,63.6866L92.8242,58.5274ZM75.6209,68L75.6209,34L78.1758,34L92.8242,54.2139L92.8242,34L95.3791,34L95.3791,68L92.8242,68L78.1758,47.7861L78.1758,68L75.6209,68Z" fill="rgb(0,0,0)" stroke="none" stroke-width="1"/><path id="eUnvJSQ6Vbe6" d="M114.501,68L114.501,34L134.577,34L134.577,36.5373L117.021,36.5373L117.021,39.5821L134.577,39.5821L134.577,42.1194L117.021,42.1194L117.021,46.9403L131.889,46.9403L131.889,49.4776L117.021,49.4776L117.021,52.5224L131.889,52.5224L131.889,55.0597L117.021,55.0597L117.021,68L114.501,68ZM108.957,68L108.957,34L111.477,34L111.477,68L108.957,68Z" fill="rgb(0,0,0)" stroke="none" stroke-width="1"/><path id="eUnvJSQ6Vbe7" d="M168.806,51C168.806,48.207,168.153,45.7362,166.847,43.5877C165.594,41.3855,163.844,39.6398,161.599,38.3507C159.405,37.0616,156.924,36.4171,154.156,36.4171C151.388,36.4171,148.881,37.0616,146.636,38.3507C144.442,39.6398,142.692,41.3855,141.387,43.5877C140.133,45.7362,139.506,48.207,139.506,51C139.506,53.7393,140.133,56.2101,141.387,58.4123C142.692,60.6145,144.442,62.3602,146.636,63.6493C148.881,64.9384,151.388,65.5829,154.156,65.5829C156.924,65.5829,159.405,64.9384,161.599,63.6493C163.844,62.3602,165.594,60.6145,166.847,58.4123C168.153,56.2101,168.806,53.7393,168.806,51ZM163.636,51C163.636,48.3144,162.722,46.1122,160.894,44.3934C159.118,42.6209,156.872,41.7346,154.156,41.7346C151.44,41.7346,149.169,42.6209,147.341,44.3934C145.565,46.1122,144.677,48.3144,144.677,51C144.677,53.6319,145.565,55.8341,147.341,57.6066C149.169,59.3791,151.44,60.2654,154.156,60.2654C156.872,60.2654,159.118,59.3791,160.894,57.6066C162.722,55.8341,163.636,53.6319,163.636,51ZM154.156,62.6825C151.91,62.6825,149.9,62.1722,148.124,61.1517C146.348,60.1311,144.938,58.7346,143.894,56.9621C142.849,55.1896,142.327,53.2022,142.327,51C142.327,48.7978,142.849,46.8104,143.894,45.0379C144.938,43.2654,146.348,41.8689,148.124,40.8483C149.9,39.8278,151.91,39.3175,154.156,39.3175C156.402,39.3175,158.413,39.8278,160.189,40.8483C161.964,41.8689,163.374,43.2654,164.419,45.0379C165.463,46.8104,165.986,48.7978,165.986,51C165.986,53.2022,165.463,55.1896,164.419,56.9621C163.374,58.7346,161.964,60.1311,160.189,61.1517C158.413,62.1722,156.402,62.6825,154.156,62.6825ZM154.156,68C150.97,68,148.098,67.248,145.539,65.7441C142.98,64.2401,140.943,62.1991,139.428,59.6209C137.914,57.0427,137.156,54.169,137.156,51C137.156,47.7773,137.914,44.9036,139.428,42.3791C140.943,39.8009,142.98,37.7599,145.539,36.2559C148.098,34.752,150.97,34,154.156,34C157.342,34,160.215,34.752,162.774,36.2559C165.333,37.7599,167.37,39.8009,168.884,42.3791C170.399,44.9036,171.156,47.7773,171.156,51C171.156,54.169,170.399,57.0427,168.884,59.6209C167.37,62.1991,165.333,64.2401,162.774,65.7441C160.215,67.248,157.342,68,154.156,68Z" fill="rgb(0,0,0)" stroke="none" stroke-width="1"/><path id="eUnvJSQ6Vbe8" d="M183.048,68L183.048,34L185.568,34L185.568,59.8806L200.604,59.8806L200.604,62.4179L185.568,62.4179L185.568,65.4627L200.604,65.4627L200.604,68L183.048,68ZM177.504,68L177.504,34L180.024,34L180.024,68L177.504,68Z" fill="rgb(0,0,0)" stroke="none" stroke-width="1"/><path id="eUnvJSQ6Vbe9" d="M210.774,68L210.774,34L219.174,34C222.702,34.0564,225.81,34.8176,228.498,36.2836C231.186,37.7496,233.286,39.7512,234.798,42.2886C236.366,44.8259,237.15,47.7297,237.15,51C237.15,54.2703,236.366,57.2023,234.798,59.796C233.286,62.3333,231.158,64.335,228.414,65.801C225.726,67.267,222.646,68,219.174,68L210.774,68ZM205.23,68L205.23,34L207.75,34L207.75,68L205.23,68ZM218.922,36.5373L213.294,36.5373L213.294,39.5821L219.174,39.5821C222.87,39.6385,225.866,40.7098,228.162,42.796C230.458,44.8823,231.606,47.6169,231.606,51C231.606,54.4395,230.43,57.2023,228.078,59.2886C225.782,61.3748,222.814,62.4179,219.174,62.4179L213.294,62.4179L213.294,65.4627L218.922,65.4627C222.058,65.4627,224.802,64.8707,227.154,63.6866C229.506,62.4461,231.326,60.7264,232.614,58.5274C233.958,56.3284,234.63,53.8192,234.63,51C234.63,48.1244,233.958,45.6153,232.614,43.4726C231.326,41.2736,229.506,39.5821,227.154,38.398C224.802,37.1575,222.058,36.5373,218.922,36.5373ZM218.922,42.1194L213.294,42.1194L213.294,59.8806L218.922,59.8806C222.058,59.8806,224.522,59.0912,226.314,57.5124C228.162,55.9337,229.086,53.7629,229.086,51C229.086,48.2372,228.162,46.0663,226.314,44.4876C224.522,42.9088,222.058,42.1194,218.922,42.1194Z" fill="rgb(0,0,0)" stroke="none" stroke-width="1"/><path id="eUnvJSQ6Vbe10" display="none" d="M34,54.7961L34,34L36.5312,34L36.5312,54.7136C36.5312,58.2346,37.6,60.9304,39.7375,62.801C41.9312,64.6165,44.5187,65.5243,47.5,65.5243C50.4813,65.5243,53.0406,64.6165,55.1781,62.801C57.3719,60.9304,58.4688,58.2346,58.4688,54.7136L58.4688,34L61,34L61,54.7961C60.9438,57.6019,60.2969,59.9951,59.0594,61.9757C57.8781,63.9013,56.275,65.3867,54.25,66.432C52.225,67.4774,49.975,68,47.5,68C45.025,68,42.7469,67.4774,40.6656,66.432C38.6406,65.3867,37.0094,63.8738,35.7719,61.8932C34.5906,59.9126,34,57.5469,34,54.7961ZM39.5687,54.7961L39.5687,34L42.1,34L42.1,54.7136C42.1,56.5841,42.6344,57.9595,43.7031,58.8398C44.7719,59.6651,46.0375,60.0777,47.5,60.0777C48.9625,60.0777,50.2281,59.6651,51.2969,58.8398C52.3656,57.9595,52.9,56.5841,52.9,54.7136L52.9,34L55.4312,34L55.4312,54.7961C55.375,57.3819,54.5594,59.335,52.9844,60.6553C51.4656,61.9207,49.6375,62.5534,47.5,62.5534C45.3625,62.5534,43.5062,61.8932,41.9313,60.5728C40.3563,59.2524,39.5687,57.3269,39.5687,54.7961Z" fill="rgb(0,0,0)" stroke="none" stroke-width="1"/></g></svg>