<svg id="eAYi6ncVQPm1" xmlns="http://www.w3.org/2000/svg" xmlns:xlink="http://www.w3.org/1999/xlink" viewBox="0 0 271 102" shape-rendering="geometricPrecision" text-rendering="geometricPrecision"><rect id="eAYi6ncVQPm2" display="none" width="271" height="102" rx="0" ry="0" fill="rgb(255,255,255)" stroke="none" stroke-width="1"/><g id="eAYi6ncVQPm3" opacity="0"><path id="eAYi6ncVQPm4" d="M51.0498,68.7961L51.0498,48L53.5904,48L53.5904,68.7136C53.5904,72.2346,54.6631,74.9304,56.8086,76.801C59.0104,78.6165,61.6075,79.5243,64.5998,79.5243C67.5921,79.5243,70.1609,78.6165,72.3064,76.801C74.5082,74.9304,75.6092,72.2346,75.6092,68.7136L75.6092,48L78.1498,48L78.1498,68.7961C78.0933,71.6019,77.4441,73.9951,76.202,75.9757C75.0164,77.9013,73.4073,79.3867,71.3748,80.432C69.3423,81.4774,67.084,82,64.5998,82C62.1156,82,59.8291,81.4774,57.7401,80.432C55.7076,79.3867,54.0703,77.8738,52.8282,75.8932C51.6426,73.9126,51.0498,71.5469,51.0498,68.7961ZM56.6392,68.7961L56.6392,48L59.1798,48L59.1798,68.7136C59.1798,70.5841,59.7162,71.9595,60.7889,72.8398C61.8616,73.6651,63.1319,74.0777,64.5998,74.0777C66.0677,74.0777,67.338,73.6651,68.4107,72.8398C69.4834,71.9595,70.0198,70.5841,70.0198,68.7136L70.0198,48L72.5604,48L72.5604,68.7961C72.504,71.3819,71.6853,73.335,70.1045,74.6553C68.5801,75.9207,66.7452,76.5534,64.5998,76.5534C62.4544,76.5534,60.5913,75.8932,59.0104,74.5728C57.4296,73.2524,56.6392,71.3269,56.6392,68.7961Z" fill="rgb(0,0,0)" stroke="none" stroke-width="1"/><path id="eAYi6ncVQPm5" d="M70,68L70,34L72.5549,34L72.5549,68L70,68ZM98.445,68L98.445,34L101,34L101,68L98.445,68ZM92.8242,58.5274L78.1758,38.3134L78.1758,43.4726L92.8242,63.6866L92.8242,58.5274ZM75.6209,68L75.6209,34L78.1758,34L92.8242,54.2139L92.8242,34L95.3791,34L95.3791,68L92.8242,68L78.1758,47.7861L78.1758,68L75.6209,68Z" fill="rgb(0,0,0)" stroke="none" stroke-width="1"/><path id="eAYi6ncVQPm6" d="M114.501,68L114.501,34L134.577,34L134.577,36.5373L117.021,36.5373L117.021,39.5821L134.577,39.5821L134.577,42.1194L117.021,42.1194L117.021,46.9403L131.889,46.9403L131.889,49.4776L117.021,49.4776L117.021,52.5224L131.889,52.5224L131.889,55.0597L117.021,55.0597L117.021,68L114.501,68ZM108.957,68L108.957,34L111.477,34L111.477,68L108.957,68Z" fill="rgb(0,0,0)" stroke="none" stroke-width="1"/><path id="eAYi6ncVQPm7" d="M168.806,51C168.806,48.207,168.153,45.7362,166.847,43.5877C165.594,41.3855,163.844,39.6398,161.599,38.3507C159.405,37.0616,156.924,36.4171,154.156,36.4171C151.388,36.4171,148.881,37.0616,146.636,38.3507C144.442,39.6398,142.692,41.3855,141.387,43.5877C140.133,45.7362,139.506,48.207,139.506,51C139.506,53.7393,140.133,56.2101,141.387,58.4123C142.692,60.6145,144.442,62.3602,146.636,63.6493C148.881,64.9384,151.388,65.5829,154.156,65.5829C156.924,65.5829,159.405,64.9384,161.599,63.6493C163.844,62.3602,165.594,60.6145,166.847,58.4123C168.153,56.2101,168.806,53.7393,168.806,51ZM163.636,51C163.636,48.3144,162.722,46.1122,160.894,44.3934C159.118,42.6209,156.872,41.7346,154.156,41.7346C151.44,41.7346,149.169,42.6209,147.341,44.3934C145.565,46.1122,144.677,48.3144,144.677,51C144.677,53.6319,145.565,55.8341,147.341,57.6066C149.169,59.3791,151.44,60.2654,154.156,60.2654C156.872,60.2654,159.118,59.3791,160.894,57.6066C162.722,55.8341,163.636,53.6319,163.636,51ZM154.156,62.6825C151.91,62.6825,149.9,62.1722,148.124,61.1517C146.348,60.1311,144.938,58.7346,143.894,56.9621C142.849,55.1896,142.327,53.2022,142.327,51C142.327,48.7978,142.849,46.8104,143.894,45.0379C144.938,43.2654,146.348,41.8689,148.124,40.8483C149.9,39.8278,151.91,39.3175,154.156,39.3175C156.402,39.3175,158.413,39.8278,160.189,40.8483C161.964,41.8689,163.374,43.2654,164.419,45.0379C165.463,46.8104,165.986,48.7978,165.986,51C165.986,53.2022,165.463,55.1896,164.419,56.9621C163.374,58.7346,161.964,60.1311,160.189,61.1517C158.413,62.1722,156.402,62.6825,154.156,62.6825ZM154.156,68C150.97,68,148.098,67.248,145.539,65.7441C142.98,64.2401,140.943,62.1991,139.428,59.6209C137.914,57.0427,137.156,54.169,137.156,51C137.156,47.7773,137.914,44.9036,139.428,42.3791C140.943,39.8009,142.98,37.7599,145.539,36.2559C148.098,34.752,150.97,34,154.156,34C157.342,34,160.215,34.752,162.774,36.2559C165.333,37.7599,167.37,39.8009,168.884,42.3791C170.399,44.9036,171.156,47.7773,171.156,51C171.156,54.169,170.399,57.0427,168.884,59.6209C167.37,62.1991,165.333,64.2401,162.774,65.7441C160.215,67.248,157.342,68,154.156,68Z" fill="rgb(0,0,0)" stroke="none" stroke-width="1"/><path id="eAYi6ncVQPm8" d="M183.048,68L183.048,34L185.568,34L185.568,59.8806L200.604,59.8806L200.604,62.4179L185.568,62.4179L185.568,65.4627L200.604,65.4627L200.604,68L183.048,68ZM177.504,68L177.504,34L180.024,34L180.024,68L177.504,68Z" fill="rgb(0,0,0)" stroke="none" stroke-width="1"/><path id="eAYi6ncVQPm9" d="M210.774,68L210.774,34L219.174,34C222.702,34.0564,225.81,34.8176,228.498,36.2836C231.186,37.7496,233.286,39.7512,234.798,42.2886C236.366,44.8259,237.15,47.7297,237.15,51C237.15,54.2703,236.366,57.2023,234.798,59.796C233.286,62.3333,231.158,64.335,228.414,65.801C225.726,67.267,222.646,68,219.174,68L210.774,68ZM205.23,68L205.23,34L207.75,34L207.75,68L205.23,68ZM218.922,36.5373L213.294,36.5373L213.294,39.5821L219.174,39.5821C222.87,39.6385,225.866,40.7098,228.162,42.796C230.458,44.8823,231.606,47.6169,231.606,51C231.606,54.4395,230.43,57.2023,228.078,59.2886C225.782,61.3748,222.814,62.4179,219.174,62.4179L213.294,62.4179L213.294,65.4627L218.922,65.4627C222.058,65.4627,224.802,64.8707,227.154,63.6866C229.506,62.4461,231.326,60.7264,232.614,58.5274C233.958,56.3284,234.63,53.8192,234.63,51C234.63,48.1244,233.958,45.6153,232.614,43.4726C231.326,41.2736,229.506,39.5821,227.154,38.398C224.802,37.1575,222.058,36.5373,218.922,36.5373ZM218.922,42.1194L213.294,42.1194L213.294,59.8806L218.922,59.8806C222.058,59.8806,224.522,59.0912,226.314,57.5124C228.162,55.9337,229.086,53.7629,229.086,51C229.086,48.2372,228.162,46.0663,226.314,44.4876C224.522,42.9088,222.058,42.1194,218.922,42.1194Z" fill="rgb(0,0,0)" stroke="none" stroke-width="1"/><path id="eAYi6ncVQPm10" display="none" d="M34,54.7961L34,34L36.5312,34L36.5312,54.7136C36.5312,58.2346,37.6,60.9304,39.7375,62.801C41.9312,64.6165,44.5187,65.5243,47.5,65.5243C50.4813,65.5243,53.0406,64.6165,55.1781,62.801C57.3719,60.9304,58.4688,58.2346,58.4688,54.7136L58.4688,34L61,34L61,54.7961C60.9438,57.6019,60.2969,59.9951,59.0594,61.9757C57.8781,63.9013,56.275,65.3867,54.25,66.432C52.225,67.4774,49.975,68,47.5,68C45.025,68,42.7469,67.4774,40.6656,66.432C38.6406,65.3867,37.0094,63.8738,35.7719,61.8932C34.5906,59.9126,34,57.5469,34,54.7961ZM39.5687,54.7961L39.5687,34L42.1,34L42.1,54.7136C42.1,56.5841,42.6344,57.9595,43.7031,58.8398C44.7719,59.6651,46.0375,60.0777,47.5,60.0777C48.9625,60.0777,50.2281,59.6651,51.2969,58.8398C52.3656,57.9595,52.9,56.5841,52.9,54.7136L52.9,34L55.4312,34L55.4312,54.7961C55.375,57.3819,54.5594,59.335,52.9844,60.6553C51.4656,61.9207,49.6375,62.5534,47.5,62.5534C45.3625,62.5534,43.5062,61.8932,41.9313,60.5728C40.3563,59.2524,39.5687,57.3269,39.5687,54.7961Z" fill="rgb(0,0,0)" stroke="none" stroke-width="1"/></g><script><![CDATA[!function(t,n){"object"==typeof exports&&"undefined"!=typeof module?module.exports=n():"function"==typeof define&&define.amd?define(n):((t="undefined"!=typeof globalThis?globalThis:t||self).__SVGATOR_PLAYER__=t.__SVGATOR_PLAYER__||{},t.__SVGATOR_PLAYER__["5c7f360c"]=n())}(this,(function(){"use strict";function t(t,n){var r=Object.keys(t);if(Object.getOwnPropertySymbols){var e=Object.getOwnPropertySymbols(t);n&&(e=e.filter((function(n){return Object.getOwnPropertyDescriptor(t,n).enumerable}))),r.push.apply(r,e)}return r}function n(t){return(n="function"==typeof Symbol&&"symbol"==typeof Symbol.iterator?function(t){return typeof t}:function(t){return t&&"function"==typeof Symbol&&t.constructor===Symbol&&t!==Symbol.prototype?"symbol":typeof t})(t)}function r(t,n){if(!(t instanceof n))throw new TypeError("Cannot call a class as a function")}function e(t,n){for(var r=0;r<n.length;r++){var e=n[r];e.enumerable=e.enumerable||!1,e.configurable=!0,"value"in e&&(e.writable=!0),Object.defineProperty(t,e.key,e)}}function i(t,n,r){return n&&e(t.prototype,n),r&&e(t,r),t}function o(t,n,r){return n in t?Object.defineProperty(t,n,{value:r,enumerable:!0,configurable:!0,writable:!0}):t[n]=r,t}function u(t){return(u=Object.setPrototypeOf?Object.getPrototypeOf:function(t){return t.__proto__||Object.getPrototypeOf(t)})(t)}function a(t,n){return(a=Object.setPrototypeOf||function(t,n){return t.__proto__=n,t})(t,n)}function l(t,n){if(n&&("object"==typeof n||"function"==typeof n))return n;if(void 0!==n)throw new TypeError("Derived constructors may only return object or undefined");return function(t){if(void 0===t)throw new ReferenceError("this hasn't been initialised - super() hasn't been called");return t}(t)}function f(t){var n=function(){if("undefined"==typeof Reflect||!Reflect.construct)return!1;if(Reflect.construct.sham)return!1;if("function"==typeof Proxy)return!0;try{return Boolean.prototype.valueOf.call(Reflect.construct(Boolean,[],(function(){}))),!0}catch(t){return!1}}();return function(){var r,e=u(t);if(n){var i=u(this).constructor;r=Reflect.construct(e,arguments,i)}else r=e.apply(this,arguments);return l(this,r)}}function s(t,n,r){return(s="undefined"!=typeof Reflect&&Reflect.get?Reflect.get:function(t,n,r){var e=function(t,n){for(;!Object.prototype.hasOwnProperty.call(t,n)&&null!==(t=u(t)););return t}(t,n);if(e){var i=Object.getOwnPropertyDescriptor(e,n);return i.get?i.get.call(r):i.value}})(t,n,r||t)}var c=h(Math.pow(10,-6));function h(t){var n=arguments.length>1&&void 0!==arguments[1]?arguments[1]:6;if(Number.isInteger(t))return t;var r=Math.pow(10,n);return Math.round((+t+Number.EPSILON)*r)/r}function v(t,n){var r=arguments.length>2&&void 0!==arguments[2]?arguments[2]:c;return Math.abs(t-n)<r}var y=Math.PI/180;function g(t){return t}function d(t,n,r){var e=1-r;return 3*r*e*(t*e+n*r)+r*r*r}function p(){var t=arguments.length>0&&void 0!==arguments[0]?arguments[0]:0,n=arguments.length>1&&void 0!==arguments[1]?arguments[1]:0,r=arguments.length>2&&void 0!==arguments[2]?arguments[2]:1,e=arguments.length>3&&void 0!==arguments[3]?arguments[3]:1;return t<0||t>1||r<0||r>1?null:v(t,n)&&v(r,e)?g:function(i){if(i<=0)return t>0?i*n/t:0===n&&r>0?i*e/r:0;if(i>=1)return r<1?1+(i-1)*(e-1)/(r-1):1===r&&t<1?1+(i-1)*(n-1)/(t-1):1;for(var o,u=0,a=1;u<a;){var l=d(t,r,o=(u+a)/2);if(v(i,l))break;l<i?u=o:a=o}return d(n,e,o)}}function m(){return 1}function b(t){return 1===t?1:0}function w(){var t=arguments.length>0&&void 0!==arguments[0]?arguments[0]:1,n=arguments.length>1&&void 0!==arguments[1]?arguments[1]:0;if(1===t){if(0===n)return b;if(1===n)return m}var r=1/t;return function(t){return t>=1?1:(t+=n*r)-t%r}}function x(t,n,r){return t>=.5?r:n}function k(t,n,r){return 0===t||n===r?n:t*(r-n)+n}function _(t,n,r){var e=k(t,n,r);return e<=0?0:e}function A(t,n,r){return 0===t?n:1===t?r:{x:k(t,n.x,r.x),y:k(t,n.y,r.y)}}function S(t,n,r){var e=function(t,n,r){return Math.round(k(t,n,r))}(t,n,r);return e<=0?0:e>=255?255:e}function O(t,n,r){return 0===t?n:1===t?r:{r:S(t,n.r,r.r),g:S(t,n.g,r.g),b:S(t,n.b,r.b),a:k(t,null==n.a?1:n.a,null==r.a?1:r.a)}}function P(t,n,r){if(0===t)return n;if(1===t)return r;var e=n.length;if(e!==r.length)return x(t,n,r);for(var i=[],o=0;o<e;o++)i.push(O(t,n[o],r[o]));return i}function j(t,n){for(var r=[],e=0;e<t;e++)r.push(n);return r}function M(t,n){if(--n<=0)return t;var r=(t=Object.assign([],t)).length;do{for(var e=0;e<r;e++)t.push(t[e])}while(--n>0);return t}var E,R=function(){function t(n){r(this,t),this.list=n,this.length=n.length}return i(t,[{key:"setAttribute",value:function(t,n){for(var r=this.list,e=0;e<this.length;e++)r[e].setAttribute(t,n)}},{key:"removeAttribute",value:function(t){for(var n=this.list,r=0;r<this.length;r++)n[r].removeAttribute(t)}},{key:"style",value:function(t,n){for(var r=this.list,e=0;e<this.length;e++)r[e].style[t]=n}}]),t}(),I=/-./g,F=function(t,n){return n.toUpperCase()};function N(t){return"function"==typeof t?t:x}function T(t){return t?"function"==typeof t?t:Array.isArray(t)?function(t){var n=arguments.length>1&&void 0!==arguments[1]?arguments[1]:g;if(!Array.isArray(t))return n;switch(t.length){case 1:return w(t[0])||n;case 2:return w(t[0],t[1])||n;case 4:return p(t[0],t[1],t[2],t[3])||n}return n}(t,null):function(t,n){var r=arguments.length>2&&void 0!==arguments[2]?arguments[2]:g;switch(t){case"linear":return g;case"steps":return w(n.steps||1,n.jump||0)||r;case"bezier":case"cubic-bezier":return p(n.x1||0,n.y1||0,n.x2||0,n.y2||0)||r}return r}(t.type,t.value,null):null}function B(t,n,r){var e=arguments.length>3&&void 0!==arguments[3]&&arguments[3],i=n.length-1;if(t<=n[0].t)return e?[0,0,n[0].v]:n[0].v;if(t>=n[i].t)return e?[i,1,n[i].v]:n[i].v;var o,u=n[0],a=null;for(o=1;o<=i;o++){if(!(t>n[o].t)){a=n[o];break}u=n[o]}return null==a?e?[i,1,n[i].v]:n[i].v:u.t===a.t?e?[o,1,a.v]:a.v:(t=(t-u.t)/(a.t-u.t),u.e&&(t=u.e(t)),e?[o,t,r(t,u.v,a.v)]:r(t,u.v,a.v))}function q(t,n){var r=arguments.length>2&&void 0!==arguments[2]?arguments[2]:null;return t&&t.length?"function"!=typeof n?null:("function"!=typeof r&&(r=null),function(e){var i=B(e,t,n);return null!=i&&r&&(i=r(i)),i}):null}function L(t,n){return t.t-n.t}function C(t,r,e,i,o){var u,a="@"===e[0],l="#"===e[0],f=E[e],s=x;switch(a?(u=e.substr(1),e=u.replace(I,F)):l&&(e=e.substr(1)),n(f)){case"function":if(s=f(i,o,B,T,e,a,r,t),l)return s;break;case"string":s=q(i,N(f));break;case"object":if((s=q(i,N(f.i),f.f))&&"function"==typeof f.u)return f.u(r,s,e,a,t)}return s?function(t,n,r){if(arguments.length>3&&void 0!==arguments[3]&&arguments[3])return t instanceof R?function(e){return t.style(n,r(e))}:function(e){return t.style[n]=r(e)};if(Array.isArray(n)){var e=n.length;return function(i){var o=r(i);if(null==o)for(var u=0;u<e;u++)t[u].removeAttribute(n);else for(var a=0;a<e;a++)t[a].setAttribute(n,o)}}return function(e){var i=r(e);null==i?t.removeAttribute(n):t.setAttribute(n,i)}}(r,e,s,a):null}function D(t,r,e,i){if(!i||"object"!==n(i))return null;var o=null,u=null;return Array.isArray(i)?u=function(t){if(!t||!t.length)return null;for(var n=0;n<t.length;n++)t[n].e&&(t[n].e=T(t[n].e));return t.sort(L)}(i):(u=i.keys,o=i.data||null),u?C(t,r,e,u,o):null}function z(t,n,r){if(!r)return null;var e=[];for(var i in r)if(r.hasOwnProperty(i)){var o=D(t,n,i,r[i]);o&&e.push(o)}return e.length?e:null}function V(t,n){if(!n.duration||n.duration<0)return null;var r=function(t,n){if(!n)return null;var r=[];if(Array.isArray(n))for(var e=n.length,i=0;i<e;i++){var o=n[i];if(2===o.length){var u=null;if("string"==typeof o[0])u=t.getElementById(o[0]);else if(Array.isArray(o[0])){u=[];for(var a=0;a<o[0].length;a++)if("string"==typeof o[0][a]){var l=t.getElementById(o[0][a]);l&&u.push(l)}u=u.length?1===u.length?u[0]:new R(u):null}if(u){var f=z(t,u,o[1]);f&&(r=r.concat(f))}}}else for(var s in n)if(n.hasOwnProperty(s)){var c=t.getElementById(s);if(c){var h=z(t,c,n[s]);h&&(r=r.concat(h))}}return r.length?r:null}(t,n.elements);return r?function(t,n){var r=arguments.length>2&&void 0!==arguments[2]?arguments[2]:1/0,e=arguments.length>3&&void 0!==arguments[3]?arguments[3]:1,i=arguments.length>4&&void 0!==arguments[4]&&arguments[4],o=arguments.length>5&&void 0!==arguments[5]?arguments[5]:1,u=t.length,a=e>0?n:0;i&&r%2==0&&(a=n-a);var l=null;return function(f,s){var c=f%n,h=1+(f-c)/n;s*=e,i&&h%2==0&&(s=-s);var v=!1;if(h>r)c=a,v=!0,-1===o&&(c=e>0?0:n);else if(s<0&&(c=n-c),c===l)return!1;l=c;for(var y=0;y<u;y++)t[y](c);return v}}(r,n.duration,n.iterations||1/0,n.direction||1,!!n.alternate,n.fill||1):null}function G(t){return+("0x"+(t.replace(/[^0-9a-fA-F]+/g,"")||27))}function Y(t,n,r){return!t||!r||n>t.length?t:t.substring(0,n)+Y(t.substring(n+1),r,r)}function Q(t){var n=arguments.length>1&&void 0!==arguments[1]?arguments[1]:27;return!t||t%n?t%n:Q(t/n,n)}function U(t,n,r){if(t&&t.length){var e=G(r),i=G(n),o=Q(e)+5,u=Y(t,Q(e,5),o);return u=u.replace(/\x7c$/g,"==").replace(/\x2f$/g,"="),u=function(t,n,r){var e=+("0x"+t.substring(0,4));t=t.substring(4);for(var i=n%e+r%27,o=[],u=0;u<t.length;u+=2)if("|"!==t[u]){var a=+("0x"+t[u]+t[u+1])-i;o.push(a)}else{var l=+("0x"+t.substring(u+1,u+1+4))-i;u+=3,o.push(l)}return String.fromCharCode.apply(String,o)}(u=(u=atob(u)).replace(/[\x41-\x5A]/g,""),i,e),u=JSON.parse(u)}}Number.isInteger||(Number.isInteger=function(t){return"number"==typeof t&&isFinite(t)&&Math.floor(t)===t}),Number.EPSILON||(Number.EPSILON=2220446049250313e-31);var $=function(){function n(t,e){var i=arguments.length>2&&void 0!==arguments[2]?arguments[2]:{};r(this,n),this._id=0,this._running=!1,this._rollingBack=!1,this._animations=t,this.duration=e.duration,this.alternate=e.alternate,this.fill=e.fill,this.iterations=e.iterations,this.direction=i.direction||1,this.speed=i.speed||1,this.fps=i.fps||100,this.offset=i.offset||0,this.rollbackStartOffset=0}return i(n,[{key:"_rollback",value:function(){var t=this,n=1/0,r=null;this.rollbackStartOffset=this.offset,this._rollingBack||(this._rollingBack=!0,this._running=!0);this._id=window.requestAnimationFrame((function e(i){if(t._rollingBack){null==r&&(r=i);var o=i-r,u=t.rollbackStartOffset-o,a=Math.round(u*t.speed);if(a>t.duration&&n!=1/0){var l=!!t.alternate&&a/t.duration%2>1,f=a%t.duration;a=(f+=l?t.duration:0)||t.duration}var s=t.fps?1e3/t.fps:0,c=Math.max(0,a);if(c<n-s){t.offset=c,n=c;for(var h=t._animations,v=h.length,y=0;y<v;y++)h[y](c,t.direction)}var g=!1;if(t.iterations>0&&-1===t.fill){var d=t.iterations*t.duration,p=d==a;a=p?0:a,t.offset=p?0:t.offset,g=a>d}a>0&&t.offset>=a&&!g?t._id=window.requestAnimationFrame(e):t.stop()}}))}},{key:"_start",value:function(){var t=this,n=arguments.length>0&&void 0!==arguments[0]?arguments[0]:0,r=-1/0,e=null,i={},o=function o(u){t._running=!0,null==e&&(e=u);var a=Math.round((u-e+n)*t.speed),l=t.fps?1e3/t.fps:0;if(a>r+l&&!t._rollingBack){t.offset=a,r=a;for(var f=t._animations,s=f.length,c=0,h=0;h<s;h++)i[h]?c++:(i[h]=f[h](a,t.direction),i[h]&&c++);if(c===s)return void t._stop()}t._id=window.requestAnimationFrame(o)};this._id=window.requestAnimationFrame(o)}},{key:"_stop",value:function(){this._id&&window.cancelAnimationFrame(this._id),this._running=!1,this._rollingBack=!1}},{key:"play",value:function(){!this._rollingBack&&this._running||(this._rollingBack=!1,this.rollbackStartOffset>this.duration&&(this.offset=this.rollbackStartOffset-(this.rollbackStartOffset-this.offset)%this.duration,this.rollbackStartOffset=0),this._start(this.offset))}},{key:"stop",value:function(){this._stop(),this.offset=0,this.rollbackStartOffset=0;var t=this.direction,n=this._animations;window.requestAnimationFrame((function(){for(var r=0;r<n.length;r++)n[r](0,t)}))}},{key:"reachedToEnd",value:function(){return this.iterations>0&&this.offset>=this.iterations*this.duration}},{key:"restart",value:function(){this._stop(),this.offset=0,this._start()}},{key:"pause",value:function(){this._stop()}},{key:"reverse",value:function(){this.direction=-this.direction}}],[{key:"build",value:function(r,e){return delete r.animationSettings,r.options=U(r.options,r.root,"5c7f360c"),r.animations.map((function(n){var e=U(n.s,r.root,"5c7f360c");for(var i in delete n.s,r.animationSettings||(r.animationSettings=function(n){for(var r=1;r<arguments.length;r++){var e=null!=arguments[r]?arguments[r]:{};r%2?t(Object(e),!0).forEach((function(t){o(n,t,e[t])})):Object.getOwnPropertyDescriptors?Object.defineProperties(n,Object.getOwnPropertyDescriptors(e)):t(Object(e)).forEach((function(t){Object.defineProperty(n,t,Object.getOwnPropertyDescriptor(e,t))}))}return n}({},e)),e)e.hasOwnProperty(i)&&(n[i]=e[i])})),(r=function(t,n){if(E=n,!t||!t.root||!Array.isArray(t.animations))return null;for(var r=document.getElementsByTagName("svg"),e=!1,i=0;i<r.length;i++)if(r[i].id===t.root&&!r[i].svgatorAnimation){(e=r[i]).svgatorAnimation=!0;break}if(!e)return null;var o=t.animations.map((function(t){return V(e,t)})).filter((function(t){return!!t}));return o.length?{element:e,animations:o,animationSettings:t.animationSettings,options:t.options||void 0}:null}(r,e))?{el:r.element,options:r.options||{},player:new n(r.animations,r.animationSettings,r.options)}:null}},{key:"push",value:function(t){return this.build(t)}},{key:"init",value:function(){var t=this,n=window.__SVGATOR_PLAYER__&&window.__SVGATOR_PLAYER__["5c7f360c"];Array.isArray(n)&&n.splice(0).forEach((function(n){return t.build(n)}))}}]),n}();function H(t){return h(t)+""}function J(t){var n=arguments.length>1&&void 0!==arguments[1]?arguments[1]:" ";return t&&t.length?t.map(H).join(n):""}function Z(t){return t?null==t.a||t.a>=1?"rgb("+t.r+","+t.g+","+t.b+")":"rgba("+t.r+","+t.g+","+t.b+","+t.a+")":"transparent"}!function(){for(var t=0,n=["ms","moz","webkit","o"],r=0;r<n.length&&!window.requestAnimationFrame;++r)window.requestAnimationFrame=window[n[r]+"RequestAnimationFrame"],window.cancelAnimationFrame=window[n[r]+"CancelAnimationFrame"]||window[n[r]+"CancelRequestAnimationFrame"];window.requestAnimationFrame||(window.requestAnimationFrame=function(n){var r=Date.now(),e=Math.max(0,16-(r-t)),i=window.setTimeout((function(){n(r+e)}),e);return t=r+e,i},window.cancelAnimationFrame=window.clearTimeout)}();var K={f:null,i:function(t,n,r){return 0===t?n:1===t?r:{x:_(t,n.x,r.x),y:_(t,n.y,r.y)}},u:function(t,n){return function(r){var e=n(r);t.setAttribute("rx",H(e.x)),t.setAttribute("ry",H(e.y))}}},W={f:null,i:function(t,n,r){return 0===t?n:1===t?r:{width:_(t,n.width,r.width),height:_(t,n.height,r.height)}},u:function(t,n){return function(r){var e=n(r);t.setAttribute("width",H(e.width)),t.setAttribute("height",H(e.height))}}},X=Math.sin,tt=Math.cos,nt=Math.acos,rt=Math.asin,et=Math.tan,it=Math.atan2,ot=Math.PI/180,ut=180/Math.PI,at=Math.sqrt,lt=function(){function t(){var n=arguments.length>0&&void 0!==arguments[0]?arguments[0]:1,e=arguments.length>1&&void 0!==arguments[1]?arguments[1]:0,i=arguments.length>2&&void 0!==arguments[2]?arguments[2]:0,o=arguments.length>3&&void 0!==arguments[3]?arguments[3]:1,u=arguments.length>4&&void 0!==arguments[4]?arguments[4]:0,a=arguments.length>5&&void 0!==arguments[5]?arguments[5]:0;r(this,t),this.m=[n,e,i,o,u,a],this.i=null,this.w=null,this.s=null}return i(t,[{key:"determinant",get:function(){var t=this.m;return t[0]*t[3]-t[1]*t[2]}},{key:"isIdentity",get:function(){if(null===this.i){var t=this.m;this.i=1===t[0]&&0===t[1]&&0===t[2]&&1===t[3]&&0===t[4]&&0===t[5]}return this.i}},{key:"point",value:function(t,n){var r=this.m;return{x:r[0]*t+r[2]*n+r[4],y:r[1]*t+r[3]*n+r[5]}}},{key:"translateSelf",value:function(){var t=arguments.length>0&&void 0!==arguments[0]?arguments[0]:0,n=arguments.length>1&&void 0!==arguments[1]?arguments[1]:0;if(!t&&!n)return this;var r=this.m;return r[4]+=r[0]*t+r[2]*n,r[5]+=r[1]*t+r[3]*n,this.w=this.s=this.i=null,this}},{key:"rotateSelf",value:function(){var t=arguments.length>0&&void 0!==arguments[0]?arguments[0]:0;if(t%=360){var n=X(t*=ot),r=tt(t),e=this.m,i=e[0],o=e[1];e[0]=i*r+e[2]*n,e[1]=o*r+e[3]*n,e[2]=e[2]*r-i*n,e[3]=e[3]*r-o*n,this.w=this.s=this.i=null}return this}},{key:"scaleSelf",value:function(){var t=arguments.length>0&&void 0!==arguments[0]?arguments[0]:1,n=arguments.length>1&&void 0!==arguments[1]?arguments[1]:1;if(1!==t||1!==n){var r=this.m;r[0]*=t,r[1]*=t,r[2]*=n,r[3]*=n,this.w=this.s=this.i=null}return this}},{key:"skewSelf",value:function(t,n){if(n%=360,(t%=360)||n){var r=this.m,e=r[0],i=r[1],o=r[2],u=r[3];t&&(t=et(t*ot),r[2]+=e*t,r[3]+=i*t),n&&(n=et(n*ot),r[0]+=o*n,r[1]+=u*n),this.w=this.s=this.i=null}return this}},{key:"resetSelf",value:function(){var t=arguments.length>0&&void 0!==arguments[0]?arguments[0]:1,n=arguments.length>1&&void 0!==arguments[1]?arguments[1]:0,r=arguments.length>2&&void 0!==arguments[2]?arguments[2]:0,e=arguments.length>3&&void 0!==arguments[3]?arguments[3]:1,i=arguments.length>4&&void 0!==arguments[4]?arguments[4]:0,o=arguments.length>5&&void 0!==arguments[5]?arguments[5]:0,u=this.m;return u[0]=t,u[1]=n,u[2]=r,u[3]=e,u[4]=i,u[5]=o,this.w=this.s=this.i=null,this}},{key:"recomposeSelf",value:function(){var t=arguments.length>0&&void 0!==arguments[0]?arguments[0]:null,n=arguments.length>1&&void 0!==arguments[1]?arguments[1]:null,r=arguments.length>2&&void 0!==arguments[2]?arguments[2]:null,e=arguments.length>3&&void 0!==arguments[3]?arguments[3]:null,i=arguments.length>4&&void 0!==arguments[4]?arguments[4]:null;return this.isIdentity||this.resetSelf(),t&&(t.x||t.y)&&this.translateSelf(t.x,t.y),n&&this.rotateSelf(n),r&&(r.x&&this.skewSelf(r.x,0),r.y&&this.skewSelf(0,r.y)),!e||1===e.x&&1===e.y||this.scaleSelf(e.x,e.y),i&&(i.x||i.y)&&this.translateSelf(i.x,i.y),this}},{key:"decompose",value:function(){var t=arguments.length>0&&void 0!==arguments[0]?arguments[0]:0,n=arguments.length>1&&void 0!==arguments[1]?arguments[1]:0,r=this.m,e=r[0]*r[0]+r[1]*r[1],i=[[r[0],r[1]],[r[2],r[3]]],o=at(e);if(0===o)return{origin:{x:h(r[4]),y:h(r[5])},translate:{x:h(t),y:h(n)},scale:{x:0,y:0},skew:{x:0,y:0},rotate:0};i[0][0]/=o,i[0][1]/=o;var u=r[0]*r[3]-r[1]*r[2]<0;u&&(o=-o);var a=i[0][0]*i[1][0]+i[0][1]*i[1][1];i[1][0]-=i[0][0]*a,i[1][1]-=i[0][1]*a;var l=at(i[1][0]*i[1][0]+i[1][1]*i[1][1]);if(0===l)return{origin:{x:h(r[4]),y:h(r[5])},translate:{x:h(t),y:h(n)},scale:{x:h(o),y:0},skew:{x:0,y:0},rotate:0};i[1][0]/=l,i[1][1]/=l,a/=l;var f=0;return i[1][1]<0?(f=nt(i[1][1])*ut,i[0][1]<0&&(f=360-f)):f=rt(i[0][1])*ut,u&&(f=-f),a=it(a,at(i[0][0]*i[0][0]+i[0][1]*i[0][1]))*ut,u&&(a=-a),{origin:{x:h(r[4]),y:h(r[5])},translate:{x:h(t),y:h(n)},scale:{x:h(o),y:h(l)},skew:{x:h(a),y:0},rotate:h(f)}}},{key:"toString",value:function(){return null===this.s&&(this.s="matrix("+this.m.map((function(t){return h(t)})).join(" ")+")"),this.s}}]),t}();Object.freeze({M:2,L:2,Z:0,H:1,V:1,C:6,Q:4,T:2,S:4,A:7});var ft={},st=null;function ct(t){var r=function(){if(st)return st;if("object"!==("undefined"==typeof document?"undefined":n(document))||!document.createElementNS)return{};var t=document.createElementNS("http://www.w3.org/2000/svg","svg");return t&&t.style?(t.style.position="absolute",t.style.opacity="0.01",t.style.zIndex="-9999",t.style.left="-9999px",t.style.width="1px",t.style.height="1px",st={svg:t}):{}}().svg;if(!r)return function(t){return null};var e=document.createElementNS(r.namespaceURI,"path");e.setAttributeNS(null,"d",t),e.setAttributeNS(null,"fill","none"),e.setAttributeNS(null,"stroke","none"),r.appendChild(e);var i=e.getTotalLength();return function(t){var n=e.getPointAtLength(i*t);return{x:n.x,y:n.y}}}function ht(t){return ft[t]?ft[t]:ft[t]=ct(t)}function vt(t,n,r,e){if(!t||!e)return!1;var i=["M",t.x,t.y];if(n&&r&&(i.push("C"),i.push(n.x),i.push(n.y),i.push(r.x),i.push(r.y)),n?!r:r){var o=n||r;i.push("Q"),i.push(o.x),i.push(o.y)}return n||r||i.push("L"),i.push(e.x),i.push(e.y),i.join(" ")}function yt(t,n,r,e){var i=arguments.length>4&&void 0!==arguments[4]?arguments[4]:1,o=vt(t,n,r,e),u=ht(o);try{return u(i)}catch(t){return null}}function gt(t,n,r,e){var i=1-e;return i*i*t+2*i*e*n+e*e*r}function dt(t,n,r,e){return 2*(1-e)*(n-t)+2*e*(r-n)}function pt(t,n,r,e){var i=arguments.length>4&&void 0!==arguments[4]&&arguments[4],o=yt(t,n,null,r,e);return o||(o={x:gt(t.x,n.x,r.x,e),y:gt(t.y,n.y,r.y,e)}),i&&(o.a=mt(t,n,r,e)),o}function mt(t,n,r,e){return Math.atan2(dt(t.y,n.y,r.y,e),dt(t.x,n.x,r.x,e))}function bt(t,n,r,e,i){var o=i*i;return i*o*(e-t+3*(n-r))+3*o*(t+r-2*n)+3*i*(n-t)+t}function wt(t,n,r,e,i){var o=1-i;return 3*(o*o*(n-t)+2*o*i*(r-n)+i*i*(e-r))}function xt(t,n,r,e,i){var o=arguments.length>5&&void 0!==arguments[5]&&arguments[5],u=yt(t,n,r,e,i);return u||(u={x:bt(t.x,n.x,r.x,e.x,i),y:bt(t.y,n.y,r.y,e.y,i)}),o&&(u.a=kt(t,n,r,e,i)),u}function kt(t,n,r,e,i){return Math.atan2(wt(t.y,n.y,r.y,e.y,i),wt(t.x,n.x,r.x,e.x,i))}function _t(t,n,r){return t+(n-t)*r}function At(t,n,r){var e=arguments.length>3&&void 0!==arguments[3]&&arguments[3],i={x:_t(t.x,n.x,r),y:_t(t.y,n.y,r)};return e&&(i.a=St(t,n)),i}function St(t,n){return Math.atan2(n.y-t.y,n.x-t.x)}function Ot(t,n,r){var e=arguments.length>3&&void 0!==arguments[3]&&arguments[3];if(jt(n)){if(Mt(r))return pt(n,r.start,r,t,e)}else if(jt(r)){if(n.end)return pt(n,n.end,r,t,e)}else{if(n.end)return r.start?xt(n,n.end,r.start,r,t,e):pt(n,n.end,r,t,e);if(r.start)return pt(n,r.start,r,t,e)}return At(n,r,t,e)}function Pt(t,n,r){var e=Ot(t,n,r,!0);return e.a=function(t){return arguments.length>1&&void 0!==arguments[1]&&arguments[1]?t+Math.PI:t}(e.a)/y,e}function jt(t){return!t.type||"corner"===t.type}function Mt(t){return null!=t.start&&!jt(t)}var Et=new lt;var Rt={f:H,i:k},It={f:H,i:function(t,n,r){var e=k(t,n,r);return e<=0?0:e>=1?1:e}};function Ft(t,n,r,e,i,o,u,a){return n=function(t,n,r){for(var e,i,o,u=t.length-1,a={},l=0;l<=u;l++)(e=t[l]).e&&(e.e=n(e.e)),e.v&&"g"===(i=e.v).t&&i.r&&(o=r.getElementById(i.r))&&(a[i.r]=o.querySelectorAll("stop"));return a}(t,e,a),function(e){var i,o=r(e,t,Nt);return o?"c"===o.t?Z(o.v):"g"===o.t?(n[o.r]&&function(t,n){for(var r=0,e=t.length;r<e;r++)t[r].setAttribute("stop-color",Z(n[r]))}(n[o.r],o.v),(i=o.r)?"url(#"+i+")":"none"):"none":"none"}}function Nt(t,n,r){if(0===t)return n;if(1===t)return r;if(n&&r){var e=n.t;if(e===r.t)switch(n.t){case"c":return{t:e,v:O(t,n.v,r.v)};case"g":if(n.r===r.r)return{t:e,v:P(t,n.v,r.v),r:n.r}}}return x(t,n,r)}var Tt={fill:Ft,"fill-opacity":It,stroke:Ft,"stroke-opacity":It,"stroke-width":Rt,"stroke-dashoffset":{f:H,i:k},"stroke-dasharray":{f:function(t){var n=arguments.length>1&&void 0!==arguments[1]?arguments[1]:" ";return t&&t.length>0&&(t=t.map((function(t){return h(t,4)}))),J(t,n)},i:function(t,n,r){var e,i,o,u=n.length,a=r.length;if(u!==a)if(0===u)n=j(u=a,0);else if(0===a)a=u,r=j(u,0);else{var l=(o=(e=u)*(i=a)/function(t,n){for(var r;n;)r=n,n=t%n,t=r;return t||1}(e,i))<0?-o:o;n=M(n,Math.floor(l/u)),r=M(r,Math.floor(l/a)),u=a=l}for(var f=[],s=0;s<u;s++)f.push(h(_(t,n[s],r[s])));return f}},opacity:It,transform:function(t,r,e,i){if(!(t=function(t,r){if(!t||"object"!==n(t))return null;var e=!1;for(var i in t)t.hasOwnProperty(i)&&(t[i]&&t[i].length?(t[i].forEach((function(t){t.e&&(t.e=r(t.e))})),e=!0):delete t[i]);return e?t:null}(t,i)))return null;var o=function(n,i,o){var u=arguments.length>3&&void 0!==arguments[3]?arguments[3]:null;return t[n]?e(i,t[n],o):r&&r[n]?r[n]:u};return r&&r.a&&t.o?function(n){var r=e(n,t.o,Pt);return Et.recomposeSelf(r,o("r",n,k,0)+r.a,o("k",n,A),o("s",n,A),o("t",n,A)).toString()}:function(t){return Et.recomposeSelf(o("o",t,Ot,null),o("r",t,k,0),o("k",t,A),o("s",t,A),o("t",t,A)).toString()}},r:Rt,"#size":W,"#radius":K,_:function(t,n){if(Array.isArray(t))for(var r=0;r<t.length;r++)this[t[r]]=n;else this[t]=n}},Bt=function(t){!function(t,n){if("function"!=typeof n&&null!==n)throw new TypeError("Super expression must either be null or a function");t.prototype=Object.create(n&&n.prototype,{constructor:{value:t,writable:!0,configurable:!0}}),n&&a(t,n)}(e,t);var n=f(e);function e(){return r(this,e),n.apply(this,arguments)}return i(e,null,[{key:"build",value:function(t){var n=s(u(e),"build",this).call(this,t,Tt);if(!n)return null;n.el,n.options,function(t,n,r){t.play()}(n.player)}}]),e}($);return Bt.init(),Bt}));
(function(s,i,o,w){w[o]=w[o]||{};w[o][s]=w[o][s]||[];w[o][s].push(i);})('5c7f360c',{"root":"eAYi6ncVQPm1","animations":[{"elements":{"eAYi6ncVQPm3":{"opacity":[{"t":0,"v":0},{"t":300,"v":1}]},"eAYi6ncVQPm4":{"transform":{"data":{"t":{"x":-64.599802,"y":-65}},"keys":{"o":[{"t":200,"v":{"x":64.599802,"y":65,"type":"corner"},"e":[0,0,0.58,1]},{"t":500,"v":{"x":64.599802,"y":84.8,"type":"corner"}},{"t":800,"v":{"x":47.450002,"y":84.8,"type":"corner"},"e":[0,0,0.58,1]},{"t":1000,"v":{"x":47.450002,"y":84.8,"type":"corner"},"e":[0,0,0.58,1]},{"t":1900,"v":{"x":47.550002,"y":51,"type":"corner"}}]}}}},"s":"MVDA1M1hiOE81ZmExYjEJhZlc5ZWIxYTZhY1VOhYjVmNzc2ZjcyNmRDGNmQ2OTVmYTFhNmFmYCTJMYTBiMWE2YWNhYjFVmNzc2ZVM2OTVmYTZMiMWEyYWY5ZWIxS2E2ISGFjYWJiMFc1Zjc3NFmQ2OUM1ZmEzYTZhOWNE5NWZNNzc2ZTY5NWYX5ZWE5YjFhMmFmYWI5DZU9iMWEyNWY3N0xhMVzllYTliMGEyNjk1ZmIIwYWRLYTJhMmExNWYY3NzZlYmE/"}],"options":"MNDAxMDg4MmY4MDgxNmGU3ZjgxMmY0NzJmNzkU3YzZlNzEyZjhh"},'__SVGATOR_PLAYER__',window)]]></script></svg>