<svg width="204" height="34" viewBox="0 0 204 34" fill="none" xmlns="http://www.w3.org/2000/svg">
<path d="M0 20.7961V0H2.53125V20.7136C2.53125 24.2346 3.6 26.9304 5.7375 28.801C7.93125 30.6165 10.5187 31.5243 13.5 31.5243C16.4813 31.5243 19.0406 30.6165 21.1781 28.801C23.3719 26.9304 24.4688 24.2346 24.4688 20.7136V0H27V20.7961C26.9438 23.6019 26.2969 25.9951 25.0594 27.9757C23.8781 29.9013 22.275 31.3867 20.25 32.432C18.225 33.4774 15.975 34 13.5 34C11.025 34 8.74688 33.4774 6.66563 32.432C4.64062 31.3867 3.00938 29.8738 1.77188 27.8932C0.590625 25.9126 0 23.5469 0 20.7961ZM5.56875 20.7961V0H8.1V20.7136C8.1 22.5841 8.63438 23.9595 9.70312 24.8398C10.7719 25.6651 12.0375 26.0777 13.5 26.0777C14.9625 26.0777 16.2281 25.6651 17.2969 24.8398C18.3656 23.9595 18.9 22.5841 18.9 20.7136V0H21.4312V20.7961C21.375 23.3819 20.5594 25.335 18.9844 26.6553C17.4656 27.9207 15.6375 28.5534 13.5 28.5534C11.3625 28.5534 9.50625 27.8932 7.93125 26.5728C6.35625 25.2524 5.56875 23.3269 5.56875 20.7961Z" fill="black"/>
<path d="M36 34V0H38.5549V34H36ZM64.445 34V0H67V34H64.445ZM58.8242 24.5274L44.1758 4.31343V9.47264L58.8242 29.6866V24.5274ZM41.6209 34V0H44.1758L58.8242 20.2139V0H61.3791V34H58.8242L44.1758 13.7861V34H41.6209Z" fill="black"/>
<path d="M80.501 34V0H100.577V2.53731H83.021V5.58209H100.577V8.1194H83.021V12.9403H97.889V15.4776H83.021V18.5224H97.889V21.0597H83.021V34H80.501ZM74.957 34V0H77.477V34H74.957Z" fill="black"/>
<path d="M134.806 17C134.806 14.207 134.153 11.7362 132.847 9.58768C131.594 7.38547 129.844 5.63981 127.599 4.35071C125.405 3.06161 122.924 2.41706 120.156 2.41706C117.388 2.41706 114.881 3.06161 112.636 4.35071C110.442 5.63981 108.692 7.38547 107.387 9.58768C106.133 11.7362 105.506 14.207 105.506 17C105.506 19.7393 106.133 22.2101 107.387 24.4123C108.692 26.6145 110.442 28.3602 112.636 29.6493C114.881 30.9384 117.388 31.5829 120.156 31.5829C122.924 31.5829 125.405 30.9384 127.599 29.6493C129.844 28.3602 131.594 26.6145 132.847 24.4123C134.153 22.2101 134.806 19.7393 134.806 17ZM129.636 17C129.636 14.3144 128.722 12.1122 126.894 10.3934C125.118 8.62085 122.872 7.7346 120.156 7.7346C117.44 7.7346 115.169 8.62085 113.341 10.3934C111.565 12.1122 110.677 14.3144 110.677 17C110.677 19.6319 111.565 21.8341 113.341 23.6066C115.169 25.3791 117.44 26.2654 120.156 26.2654C122.872 26.2654 125.118 25.3791 126.894 23.6066C128.722 21.8341 129.636 19.6319 129.636 17ZM120.156 28.6825C117.91 28.6825 115.9 28.1722 114.124 27.1517C112.348 26.1311 110.938 24.7346 109.894 22.9621C108.849 21.1896 108.327 19.2022 108.327 17C108.327 14.7978 108.849 12.8104 109.894 11.0379C110.938 9.2654 112.348 7.86888 114.124 6.84834C115.9 5.8278 117.91 5.31753 120.156 5.31753C122.402 5.31753 124.413 5.8278 126.189 6.84834C127.964 7.86888 129.374 9.2654 130.419 11.0379C131.463 12.8104 131.986 14.7978 131.986 17C131.986 19.2022 131.463 21.1896 130.419 22.9621C129.374 24.7346 127.964 26.1311 126.189 27.1517C124.413 28.1722 122.402 28.6825 120.156 28.6825ZM120.156 34C116.97 34 114.098 33.248 111.539 31.7441C108.98 30.2401 106.943 28.1991 105.428 25.6209C103.914 23.0427 103.156 20.169 103.156 17C103.156 13.7773 103.914 10.9036 105.428 8.37915C106.943 5.80095 108.98 3.75987 111.539 2.25593C114.098 0.751974 116.97 0 120.156 0C123.342 0 126.215 0.751974 128.774 2.25593C131.333 3.75987 133.37 5.80095 134.884 8.37915C136.399 10.9036 137.156 13.7773 137.156 17C137.156 20.169 136.399 23.0427 134.884 25.6209C133.37 28.1991 131.333 30.2401 128.774 31.7441C126.215 33.248 123.342 34 120.156 34Z" fill="black"/>
<path d="M149.048 34V0H151.568V25.8806H166.604V28.4179H151.568V31.4627H166.604V34H149.048ZM143.504 34V0H146.024V34H143.504Z" fill="black"/>
<path d="M176.774 34V0H185.174C188.702 0.056384 191.81 0.817577 194.498 2.28358C197.186 3.74958 199.286 5.75124 200.798 8.28856C202.366 10.8259 203.15 13.7297 203.15 17C203.15 20.2703 202.366 23.2023 200.798 25.796C199.286 28.3333 197.158 30.335 194.414 31.801C191.726 33.267 188.646 34 185.174 34H176.774ZM171.23 34V0H173.75V34H171.23ZM184.922 2.53731H179.294V5.58209H185.174C188.87 5.63847 191.866 6.70978 194.162 8.79602C196.458 10.8823 197.606 13.6169 197.606 17C197.606 20.4395 196.43 23.2023 194.078 25.2886C191.782 27.3748 188.814 28.4179 185.174 28.4179H179.294V31.4627H184.922C188.058 31.4627 190.802 30.8707 193.154 29.6866C195.506 28.4461 197.326 26.7264 198.614 24.5274C199.958 22.3284 200.63 19.8192 200.63 17C200.63 14.1244 199.958 11.6153 198.614 9.47264C197.326 7.27363 195.506 5.58209 193.154 4.39801C190.802 3.15755 188.058 2.53731 184.922 2.53731ZM184.922 8.1194H179.294V25.8806H184.922C188.058 25.8806 190.522 25.0912 192.314 23.5124C194.162 21.9337 195.086 19.7629 195.086 17C195.086 14.2372 194.162 12.0663 192.314 10.4876C190.522 8.90879 188.058 8.1194 184.922 8.1194Z" fill="black"/>
</svg>
